<?xml version="1.0" encoding="UTF-8" standalone="no"?>
<!-- Created with Inkscape (http://www.inkscape.org/) -->

<svg
   version="1.1"
   id="svg1"
   width="584.11597"
   height="287.93698"
   viewBox="0 0 584.11596 287.93698"
   sodipodi:docname="OFLC G label (2022).svg"
   inkscape:version="1.4.2 (ebf0e940d0, 2025-05-08)"
   xmlns:inkscape="http://www.inkscape.org/namespaces/inkscape"
   xmlns:sodipodi="http://sodipodi.sourceforge.net/DTD/sodipodi-0.dtd"
   xmlns="http://www.w3.org/2000/svg"
   xmlns:svg="http://www.w3.org/2000/svg">
  <defs
     id="defs1" />
  <sodipodi:namedview
     id="namedview1"
     pagecolor="#ffffff"
     bordercolor="#000000"
     borderopacity="0.25"
     inkscape:showpageshadow="2"
     inkscape:pageopacity="0.0"
     inkscape:pagecheckerboard="0"
     inkscape:deskcolor="#d1d1d1"
     inkscape:zoom="0.49134076"
     inkscape:cx="292.058"
     inkscape:cy="144.50256"
     inkscape:window-width="1280"
     inkscape:window-height="730"
     inkscape:window-x="0"
     inkscape:window-y="0"
     inkscape:window-maximized="1"
     inkscape:current-layer="svg1">
    <inkscape:page
       x="0"
       y="0"
       width="584.11597"
       height="287.93698"
       id="page2"
       margin="0"
       bleed="0" />
  </sodipodi:namedview>
  <path
     style="display:inline;fill:#ffffff;stroke-width:0.999903"
     d="M 584.116,267.91416 A 20.033292,20.022837 0 0 1 564.08271,287.937 H 20.033292 A 20.033292,20.022837 0 0 1 0,267.91416 V 20.022837 A 20.033292,20.022837 0 0 1 20.033292,0 H 564.08271 A 20.033292,20.022837 0 0 1 584.116,20.022837 Z"
     id="path112" />
  <g
     class="layer"
     id="g2"
     transform="matrix(0.99796465,0,0,0.99796465,-7.6376267,-3.7047681)">
    <title
       id="title1">Layer 1</title>
    <path
       d="M 264.02,148 C 264.02,209.86694 213.86694,260.02 152,260.02 90.133062,260.02 39.98,209.86694 39.98,148 39.98,86.133062 90.133062,35.98 152,35.98 c 61.86694,0 112.02,50.153062 112.02,112.02 z"
       fill="#44c660"
       id="svg_46"
       sodipodi:nodetypes="sssss" />
    <path
       id="path143"
       d="M 154.70081,161.8294 V 142.67665 H 204.5 v 45.52247 c -4.72952,4.71882 -11.96291,8.88246 -21.14377,12.49092 -9.18086,3.6085 -18.63994,5.27396 -27.8208,5.27396 -11.96295,0 -22.53484,-2.49818 -31.43747,-7.49455 -8.90269,-4.99637 -15.57968,-12.21334 -20.03097,-21.65094 -4.45134,-9.4376 -6.67699,-19.43034 -6.67699,-30.53335 0,-11.93579 2.50387,-22.48366 7.51161,-31.64367 5.00774,-9.16001 12.24113,-16.37702 21.97839,-21.37339 7.23344,-3.88605 16.4143,-5.8291 27.54258,-5.8291 14.1886,0 25.31693,3.05337 33.38495,8.88247 8.06806,5.82909 13.0758,14.15638 15.30145,24.70425 l -23.09124,4.16364 c -1.66925,-5.5515 -4.72957,-9.99274 -9.18086,-13.32365 -4.45134,-3.33091 -10.01548,-4.99637 -16.69247,-4.99637 -10.01549,0 -18.08355,3.33091 -24.20409,9.71515 -5.84236,6.38428 -8.90268,15.82183 -8.90268,28.59035 0,13.60124 3.06032,23.87153 9.18086,30.53335 6.12059,6.66183 13.91042,10.27033 23.64768,10.27033 4.72952,0 9.73726,-0.83273 14.46683,-2.77577 5.00774,-1.943 9.18086,-4.16365 12.51935,-6.93937 V 161.8294 Z"
       style="display:inline;fill:#000000 icc-color(sRGB-IEC61966-2, 0.1, 0, 0, 0);fill-opacity:1;fill-rule:nonzero;stroke:none;stroke-width:6.3157"
       clip-path="none" />
  </g>
  <g
     id="g2-9"
     transform="translate(134.64294,147.43977)">
    <path
       style="font-size:29.8368px;font-family:'.VnArial';-inkscape-font-specification:'.VnArial, Normal';stroke-width:3.7296"
       d="m 154.41006,-37.885645 2.66608,-0.2331 q 0.17482,1.602563 0.85956,2.578669 0.6993,0.976106 2.17074,1.719112 l 0.71387,0.262238 0.80128,0.203962 0.83042,0.11655 0.9324,0.04371 q 1.66084,0 2.82633,-0.4662 1.1655,-0.4662 1.8211,-1.296619 0.65559,-0.844988 0.65559,-1.8648 0,-1.019813 -0.58275,-1.74825 -0.56818,-0.743006 -1.92307,-1.267481 l -3.71503,-0.990675 -0.80128,-0.189394 -0.59732,-0.174825 -1.18007,-0.364219 q -0.96154,-0.305944 -1.6317,-0.655594 -1.48601,-0.786712 -2.27273,-1.966781 -0.37878,-0.597318 -0.56818,-1.252912 l -0.13112,-0.670163 -0.0583,-0.757575 q 0,-1.646268 0.87412,-2.972025 0.8887,-1.340325 2.68065,-2.127037 1.79196,-0.786713 3.9627,-0.786713 2.36014,0 4.18123,0.757575 1.8211,0.743007 2.7972,2.258157 l 0.34965,0.684731 0.4225,0.946969 0.0874,0.291375 0.10198,0.568181 0.0728,0.553612 0.0146,0.320513 -2.70978,0.203962 q -0.21854,-1.952212 -1.50059,-3.015731 -1.28204,-1.078087 -3.70046,-1.078087 -2.53496,0 -3.7296,0.9324 -1.18007,0.917831 -1.18007,2.272725 0,1.121793 0.81585,1.879368 0.83042,0.743007 4.28322,1.529719 3.46736,0.772144 4.72027,1.369462 1.8648,0.859557 2.75349,2.185313 0.43707,0.641025 0.6556,1.427737 l 0.17482,0.786713 0.0583,0.81585 q 0,1.660837 -0.9324,3.161419 -0.91783,1.500581 -2.84091,2.374706 -1.92307,0.859556 -4.12295,0.859556 -2.78263,0 -4.77855,-0.830419 -1.98135,-0.830418 -3.16142,-2.549531 -0.56818,-0.874125 -0.87413,-1.850231 l -0.21853,-0.976106 q -0.0728,-0.553613 -0.0728,-1.019813 z m 30.66722,6.861881 v -2.272725 q -1.79196,2.622375 -4.90967,2.622375 -1.20921,0 -2.40385,-0.524475 -1.19463,-0.524475 -1.89393,-1.28205 -0.56819,-0.772143 -0.83042,-1.98135 l -0.11655,-1.005243 -0.0437,-1.442307 v -9.586237 h 2.62238 v 8.580994 q 0,2.331 0.16025,2.768062 0.21853,1.019813 1.03438,1.617131 0.81585,0.597319 1.99592,0.597319 1.23835,0 2.21445,-0.597319 0.97611,-0.611887 1.42774,-1.675406 0.4662,-1.063519 0.4662,-3.001162 v -8.289619 h 2.62237 v 15.472012 z m 6.46852,-18.342056 v -3.015731 h 2.62237 v 3.015731 z m 0,18.342056 v -15.472012 h 2.62237 v 15.472012 z m 12.33973,-2.345568 0.37879,2.316431 q -1.67541,0.2331 -1.98135,0.2331 -1.29662,0 -2.12704,-0.437063 -0.81585,-0.437062 -1.18007,-1.209206 l -0.13112,-0.437062 -0.13112,-0.888694 q -0.0728,-0.801281 -0.0728,-1.762819 v -8.901506 h -1.92308 v -2.039625 h 1.92308 v -3.831581 l 2.60781,-1.573425 v 5.405006 h 2.63694 v 2.039625 h -2.63694 v 9.047194 q 0,1.04895 0.13111,1.3986 0.11655,0.218531 0.45164,0.553612 l 0.33508,0.11655 0.34965,0.07284 h 0.21853 l 0.48077,-0.01457 z m 12.66024,0.437062 q -1.4423,1.223775 -2.81176,1.74825 -1.36947,0.509906 -2.88462,0.509906 -2.53496,0 -3.91899,-1.238343 -1.36946,-1.252913 -1.36946,-3.190557 0,-1.150931 0.49533,-2.054193 0.50991,-0.903263 1.32576,-1.486013 0.61189,-0.407925 1.93764,-0.903262 l 1.1655,-0.189394 1.19464,-0.189394 1.48601,-0.189394 q 0.81585,-0.08741 1.26749,-0.2331 1.19463,-0.218531 1.89393,-0.495337 l 0.0146,-0.684731 q 0,-1.442307 -0.743,-2.258156 -1.01982,-0.888694 -2.9866,-0.888694 -1.83566,0 -2.68065,0.611887 -0.83042,0.611888 -1.35489,2.331 l -2.5641,-0.34965 q 0.34965,-1.617131 1.10722,-2.607806 0.77215,-0.990675 2.31643,-1.573425 0.80129,-0.291375 1.64627,-0.437062 l 0.90327,-0.101982 1.00524,-0.04371 q 2.02506,0 3.19056,0.451631 1.18006,0.437063 1.85023,1.194638 0.42249,0.539044 0.81585,1.777387 0.13112,0.655594 0.13112,2.418413 v 3.4965 q 0,4.07925 0.16025,4.851393 0.17483,0.757575 0.67016,1.6317 h -2.73892 q -0.39336,-0.81585 -0.52448,-1.908506 z m -0.21853,-5.856637 q -0.67016,0.262237 -1.76282,0.524475 l -1.18006,0.2331 -1.42774,0.2331 q -1.68998,0.218531 -2.18531,0.509906 -0.6556,0.262237 -1.04895,0.874125 -0.36422,0.6993 -0.36422,1.238344 0,1.04895 0.78671,1.74825 0.78671,0.6993 2.331,0.6993 1.48601,0 2.66608,-0.655594 1.18007,-0.655594 1.76282,-1.821094 0.42249,-0.888694 0.42249,-2.622375 z m 9.13461,7.765143 h -2.43298 v -21.357787 h 2.62237 v 7.619456 q 1.66084,-2.083331 4.23951,-2.083331 1.45687,0 2.66608,0.58275 1.22377,0.568181 2.03962,1.573425 0.83042,0.990675 1.3549,2.520394 0.20396,0.670162 0.34965,1.500581 l 0.10198,0.81585 0.0437,0.859556 q 0,3.904425 -1.98135,6.118875 -1.98135,2.199881 -4.7057,2.199881 -2.70979,0 -4.29778,-2.287293 z m -0.0291,-7.852556 q 0,2.782631 0.75757,4.020975 1.23835,2.025056 3.35082,2.025056 1.60256,0 2.91375,-1.486012 1.31118,-1.486013 1.31118,-4.458038 0,-1.6317 -0.2768,-2.636943 -0.26224,-1.019813 -0.9324,-1.835663 -1.18007,-1.442306 -2.89918,-1.442306 -1.70455,0 -2.97203,1.500581 -1.25291,1.500581 -1.25291,4.31235 z m 14.14625,7.852556 v -21.357787 h 2.62238 v 21.357787 z m 17.27854,-4.982512 2.70979,0.335081 q -0.61189,2.287294 -2.37471,3.642188 -1.76282,1.354893 -4.4289,1.354893 -3.36538,0 -5.37586,-2.0979 -1.99592,-2.112468 -1.99592,-5.856637 0,-3.744169 2.01048,-6.0606 1.01982,-1.078087 2.40385,-1.617131 1.3986,-0.539044 2.81177,-0.539044 3.10314,0 5.06992,2.112469 1.96678,2.0979 1.96678,5.94405 l -0.0146,0.6993 h -11.53845 q 0,1.267481 0.36422,2.21445 0.37879,0.946968 1.07809,1.689975 1.29662,1.354893 3.23426,1.354893 1.44231,0 2.44755,-0.743006 1.00525,-0.743006 1.6317,-2.432981 z m -8.61013,-4.239506 h 8.63927 q -0.17483,-1.98135 -0.99068,-2.928319 -1.25291,-1.51515 -3.24883,-1.51515 -1.79195,0 -3.04486,1.209206 -0.55362,0.553613 -0.96154,1.427738 -0.39336,0.859556 -0.39336,1.806525 z m 23.52853,9.222018 v -13.432387 h -2.31643 v -2.039625 h 2.31643 v -1.646269 q 0,-1.587993 0.27681,-2.316431 0.34965,-0.946969 1.31118,-1.617131 0.97611,-0.670163 2.69522,-0.670163 1.09266,0 2.44755,0.262238 l -0.39335,2.287294 -0.78672,-0.101982 -0.75757,-0.04371 q -1.13636,0 -1.66084,0.539044 -0.52447,0.524475 -0.52447,1.879369 v 1.427737 h 3.01573 v 2.039625 h -3.01573 v 13.432387 z m 6.68706,-7.736006 q 0,-4.283212 2.38927,-6.366543 1.01981,-0.844988 2.21445,-1.267482 l 0.52448,-0.145687 0.743,-0.189394 0.6556,-0.08741 0.72843,-0.02914 q 3.10315,0 5.17191,2.112469 2.06876,2.112468 2.06876,5.754656 0,2.972025 -0.88869,4.691137 -0.87413,1.719113 -2.60781,2.666082 -1.73368,0.946968 -3.74417,0.946968 -3.23426,0 -5.24475,-2.083331 -2.01048,-2.083331 -2.01048,-6.002325 z m 2.69522,0 q 0,2.986594 1.29661,4.458038 1.29662,1.471443 3.2634,1.471443 1.92308,0 3.23427,-1.486012 1.31118,-1.486013 1.31118,-4.530881 0,-2.724357 -1.31118,-4.268644 -1.29662,-1.558856 -3.23427,-1.558856 -1.96678,0 -3.2634,1.471443 -1.29661,1.471444 -1.29661,4.443469 z m 14.84555,7.736006 v -15.472012 h 2.36014 v 2.345569 q 0.87412,-1.602563 1.66083,-2.141606 0.80129,-0.553613 1.68998,-0.553613 1.31119,0 2.69522,0.844988 l -0.90326,2.432981 q -0.96154,-0.568181 -1.92308,-0.568181 -0.83042,0 -1.50058,0.495337 -0.65559,0.480769 -1.01981,1.456875 -0.43707,1.3986 -0.43707,3.059437 v 8.100225 z"
       id="text589"
       clip-path="none"
       aria-label="Suitable for " />
    <path
       style="font-size:30.1385px;font-family:'.VnArial';-inkscape-font-specification:'.VnArial, Normal';stroke-width:3.76731"
       d="M 165.62437,-0.01785513 V -2.5490182 l 9.13867,-0.014716 v 8.0055391 q -2.08968,1.6629153 -4.35595,2.5164471 -1.08899,0.3826176 -2.26627,0.6180747 l -1.16257,0.1765927 -1.14786,0.058864 q -3.16395,0 -5.70983,-1.3244458 -2.53116,-1.3244458 -3.95862,-3.9586214 -0.66222,-1.3097297 -1.01541,-2.73718798 l -0.10301,-0.5003462 -0.14716,-1.00069239 q -0.0883,-0.69165503 -0.0883,-1.53047073 0,-3.2228181 1.2803,-5.8717097 1.2803,-2.6488914 3.79674,-4.0174854 2.51645,-1.368594 5.72455,-1.368594 2.33986,0 4.22351,0.765235 1.88366,0.750519 2.88435,2.030817 1.01541,1.2655816 1.72178,3.6054358 l -2.57531,0.7063711 q -0.48563,-1.6334832 -1.192,-2.5605952 -0.70637,-0.9271121 -2.06025,-1.5157547 -0.67694,-0.294321 -1.41274,-0.441482 -0.32376,-0.05886 -0.75052,-0.103012 -0.41205,-0.04415 -0.8241,-0.04415 -1.94252,0 -3.3847,0.588643 -1.42745,0.5739265 -2.31042,1.5746189 -0.58864,0.676939 -1.35388,2.1338294 -0.8241,2.0013848 -0.8241,4.341239 0,2.76662018 0.97126,4.7238568 0.97126,1.9572366 2.95793,2.9432129 1.98667,0.9859763 3.98806,0.9859763 1.85422,0 3.62015,-0.7063711 1.76593,-0.7063711 2.67832,-1.5304707 v -4.01748563 z m 23.70758,3.42884303 2.73719,0.3384695 q -0.61808,2.3104221 -2.39872,3.6790161 -1.78065,1.368594 -4.47369,1.368594 -3.39941,0 -5.43022,-2.1191133 -2.01611,-2.1338293 -2.01611,-5.91585791 0,-3.78202859 2.03082,-6.12188289 1.03013,-1.0889887 2.42815,-1.6334831 1.41274,-0.5444944 2.8402,-0.5444944 3.13452,0 5.12119,2.1338293 1.98667,2.1191133 1.98667,6.00415438 l -0.0147,0.70637112 h -11.65513 q 0,1.2802976 0.3679,2.2368418 0.38262,0.9565442 1.08899,1.7070635 1.30973,1.368594 3.26697,1.368594 1.45689,0 2.4723,-0.7505193 1.01541,-0.7505193 1.6482,-2.4575828 z m -8.6972,-4.28237478 h 8.72663 q -0.17659,-2.00138482 -1.00069,-2.95792902 -1.26558,-1.5304707 -3.28169,-1.5304707 -1.81007,0 -3.07565,1.2214334 -0.55921,0.5592104 -0.97126,1.4421743 -0.39734,0.8682478 -0.39734,1.82479202 z M 195.39496,8.443882 V -7.1845786 h 2.38401 v 2.2221258 q 1.73649,-2.5753113 4.97403,-2.5753113 1.42745,0 2.57531,0.5003462 1.14785,0.4856301 1.79536,1.3391618 0.42676,0.5444944 0.8241,1.9572366 l 0.10301,1.0154085 0.0442,1.5599028 V 8.443882 h -2.64889 v -9.5065777 q 0,-1.6187671 -0.27961,-2.3545703 -0.26489,-0.7358033 -1.1037,-1.2802977 -0.8241,-0.5444943 -1.86894,-0.5444943 -1.67764,0 -2.91379,1.0742727 -1.23614,1.0595566 -1.23614,4.07634985 V 8.443882 Z m 27.46018,-5.0328941 2.73719,0.3384695 q -0.61808,2.3104221 -2.39872,3.6790161 -1.78065,1.368594 -4.47369,1.368594 -3.39941,0 -5.43022,-2.1191133 -2.0161,-2.1338293 -2.0161,-5.91585791 0,-3.78202859 2.03081,-6.12188289 1.03013,-1.0889887 2.42815,-1.6334831 1.41275,-0.5444944 2.8402,-0.5444944 3.13453,0 5.12119,2.1338293 1.98667,2.1191133 1.98667,6.00415438 l -0.0147,0.70637112 h -11.65513 q 0,1.2802976 0.36791,2.2368418 0.38261,0.9565442 1.08898,1.7070635 1.30973,1.368594 3.26697,1.368594 1.45689,0 2.4723,-0.7505193 1.01541,-0.7505193 1.6482,-2.4575828 z m -8.6972,-4.28237478 h 8.72663 q -0.17659,-2.00138482 -1.00069,-2.95792902 -1.26558,-1.5304707 -3.28168,-1.5304707 -1.81008,0 -3.07566,1.2214334 -0.55921,0.5592104 -0.97126,1.4421743 -0.39734,0.8682478 -0.39734,1.82479202 z M 228.88872,8.443882 V -7.1845786 h 2.38401 v 2.3692864 q 0.88296,-1.6187671 1.67763,-2.1632615 0.80938,-0.5592104 1.70706,-0.5592104 1.32445,0 2.72247,0.8535317 l -0.91239,2.4575828 q -0.97126,-0.5739265 -1.94252,-0.5739265 -0.83882,0 -1.51576,0.5003462 -0.66222,0.4856301 -1.03012,1.4716064 -0.44148,1.4127422 -0.44148,3.09037359 V 8.443882 Z m 20.26403,-1.9278045 q -1.45689,1.2361495 -2.8402,1.7659278 -1.38331,0.5150622 -2.91378,0.5150622 -2.5606,0 -3.95862,-1.2508654 -1.38331,-1.2655816 -1.38331,-3.2228182 0,-1.1625691 0.50034,-2.0749651 0.51507,-0.912396 1.33917,-1.50103858 0.61807,-0.4120498 1.95723,-0.912396 l 1.17729,-0.19130884 1.20672,-0.19130884 1.50103,-0.19130884 q 0.8241,-0.0882964 1.2803,-0.23545703 1.20672,-0.22074097 1.91309,-0.50034617 l 0.0147,-0.6916551 q 0,-1.4568903 -0.75052,-2.28099 -1.03013,-0.8976799 -3.0168,-0.8976799 -1.85422,0 -2.70775,0.6180747 -0.83882,0.6180747 -1.3686,2.3545703 l -2.59002,-0.3531855 q 0.35318,-1.6334832 1.11842,-2.6341756 0.77995,-1.0006924 2.33985,-1.5893349 0.80939,-0.2943213 1.66292,-0.441482 l 0.91239,-0.1030124 1.01541,-0.044148 q 2.04553,0 3.22282,0.456198 1.192,0.4414819 1.86894,1.2067173 0.42677,0.5444944 0.8241,1.7953599 0.13244,0.6622229 0.13244,2.4428667 v 3.5318555 q 0,4.120498 0.16188,4.9004495 0.17659,0.7652353 0.67694,1.6481992 h -2.76662 Q 249.2852,7.6197824 249.15275,6.5160775 Z m -0.22074,-5.91585792 q -0.67694,0.26488916 -1.78064,0.52977832 l -1.192,0.235457 -1.44218,0.2354571 q -1.70706,0.2207409 -2.20741,0.5150622 -0.66222,0.2648892 -1.05956,0.8829639 -0.3679,0.7063711 -0.3679,1.2508655 0,1.0595566 0.79467,1.7659277 0.79467,0.7063711 2.35457,0.7063711 1.50104,0 2.69304,-0.6622229 1.192,-0.6622229 1.78064,-1.839508 0.42677,-0.89768 0.42677,-2.6488917 z m 6.72524,7.84366242 v -21.573751 h 2.64889 V 8.443882 Z"
       id="text590"
       clip-path="none"
       aria-label="General" />
    <path
       style="font-size:29.9509px;font-family:'.VnArial';-inkscape-font-specification:'.VnArial, Normal';stroke-width:3.74387"
       d="m 153.41006,47.99369 8.23357,-21.439461 h 3.05652 l 8.77467,21.439461 h -3.232 l -2.50079,-6.493261 h -8.96479 l -2.35454,6.493261 z m 6.18615,-8.803926 h 7.26836 l -2.23755,-5.937532 -0.84822,-2.369163 -0.67272,-2.076673 q -0.39486,2.16442 -1.15533,4.094849 z m 25.98767,8.803926 v -2.281416 q -1.79881,2.632404 -4.92845,2.632404 -1.21383,0 -2.41303,-0.526481 -1.19921,-0.526481 -1.90118,-1.286953 -0.57036,-0.775096 -0.8336,-1.988927 l -0.11699,-1.009088 -0.0439,-1.447821 v -9.622897 h 2.63241 v 8.613809 q 0,2.339914 0.16087,2.778648 0.21936,1.023712 1.03833,1.623315 0.81897,0.599603 2.00356,0.599603 1.24307,0 2.22291,-0.599603 0.97984,-0.614227 1.4332,-1.681813 0.46798,-1.067586 0.46798,-3.01264 v -8.321319 h 2.63241 V 47.99369 Z m 16.55489,0 v -1.959677 q -1.47707,2.310665 -4.34347,2.310665 -1.81343,0 -3.36362,-0.994464 -1.5502,-1.009088 -2.45691,-2.881019 l -0.36561,-0.921341 -0.27787,-1.052961 q -0.21937,-1.052962 -0.21937,-2.252168 0,-2.369163 0.74585,-4.211845 0.74585,-1.842682 2.33992,-2.895643 0.70197,-0.467983 1.62331,-0.745848 l 0.36561,-0.102371 0.55573,-0.08775 0.61423,-0.07312 0.32174,-0.01462 q 1.40395,0 2.44228,0.570354 1.03834,0.570354 1.84268,1.564818 v -7.692467 h 2.61778 V 47.99369 Z m -8.32132,-7.750965 q 0,2.983391 1.2577,4.460461 1.25771,1.477071 2.96877,1.477071 1.56482,0 2.85177,-1.403948 1.28695,-1.403949 1.28695,-4.314217 0,-3.144259 -1.24308,-4.650579 -1.22845,-1.520944 -3.01264,-1.520944 -1.76956,0 -2.93951,1.433197 -1.16996,1.433198 -1.16996,4.518959 z M 208.7344,29.581492 v -3.027263 h 2.63241 v 3.027263 z m 0,18.412198 V 32.462511 h 2.63241 V 47.99369 Z m 17.27149,-5.001566 2.72015,0.336363 q -0.61423,2.296041 -2.38379,3.656116 -1.76956,1.360075 -4.44583,1.360075 -3.37825,0 -5.39643,-2.105923 -2.00355,-2.120547 -2.00355,-5.879034 0,-3.758487 2.01818,-6.083776 1.02371,-1.082211 2.41303,-1.623316 1.40395,-0.541105 2.82252,-0.541105 3.11501,0 5.08932,2.120547 1.9743,2.105923 1.9743,5.966781 l -0.0146,0.701974 h -11.58257 q 0,1.272328 0.36561,2.222918 0.38024,0.950591 1.08221,1.696438 1.30158,1.360075 3.24663,1.360075 1.44782,0 2.45691,-0.745847 1.00909,-0.745848 1.63794,-2.442286 z m -8.64306,-4.255718 h 8.67231 q -0.17549,-1.988927 -0.99446,-2.939517 -1.25771,-1.520944 -3.26126,-1.520944 -1.79881,0 -3.05651,1.21383 -0.55573,0.55573 -0.96522,1.433197 -0.39486,0.862844 -0.39486,1.813434 z m 14.66834,9.257284 V 32.462511 h 2.36916 v 2.208294 q 1.72569,-2.559281 4.94307,-2.559281 1.41858,0 2.55928,0.497232 1.14071,0.482607 1.78419,1.330826 0.42411,0.541105 0.81897,1.945054 l 0.10237,1.009087 0.0439,1.550194 v 9.549773 h -2.6324 v -9.447402 q 0,-1.608691 -0.27786,-2.339914 -0.26325,-0.731223 -1.09684,-1.272328 -0.81897,-0.541106 -1.85731,-0.541106 -1.66719,0 -2.89564,1.067586 -1.22845,1.052961 -1.22845,4.050976 v 8.482188 z m 26.79202,-5.688915 2.58853,0.336362 q -0.39486,2.676277 -2.17905,4.197221 -1.76956,1.50632 -4.28496,1.50632 -3.18814,0 -5.13319,-2.076674 -1.93043,-2.091298 -1.93043,-5.981405 l 0.0439,-1.213831 q 0,-0.277864 0.0146,-0.380236 0.0146,-0.116995 0.13162,-0.745847 0.17549,-1.038337 0.62885,-2.032801 0.80435,-1.828057 2.54466,-2.822521 0.86284,-0.482607 1.76956,-0.731223 0.92134,-0.248616 1.94505,-0.248616 2.53003,0 4.13872,1.286953 1.60869,1.272328 2.06205,3.626867 l -2.55928,0.39486 q -0.35098,-1.535568 -1.28695,-2.339914 -0.93597,-0.804345 -2.25217,-0.804345 -1.9743,0 -3.232,1.433197 -1.24308,1.418573 -1.24308,4.504334 0,3.115011 1.1992,4.548208 1.19921,1.418573 3.12964,1.418573 1.55019,0 2.58853,-0.95059 1.03833,-0.95059 1.3162,-2.924892 z m 15.47268,0.687349 2.72015,0.336363 q -0.61423,2.296041 -2.38379,3.656116 -1.76956,1.360075 -4.44583,1.360075 -3.37826,0 -5.39643,-2.105923 -2.00355,-2.120547 -2.00355,-5.879034 0,-3.758487 2.01817,-6.083776 1.02372,-1.082211 2.41304,-1.623316 1.40395,-0.541105 2.82252,-0.541105 3.11501,0 5.08931,2.120547 1.97431,2.105923 1.97431,5.966781 l -0.0146,0.701974 h -11.58257 q 0,1.272328 0.36561,2.222918 0.38024,0.950591 1.08221,1.696438 1.30158,1.360075 3.24663,1.360075 1.44782,0 2.45691,-0.745847 1.00909,-0.745848 1.63794,-2.442286 z m -8.64306,-4.255718 h 8.67231 q -0.1755,-1.988927 -0.99447,-2.939517 -1.2577,-1.520944 -3.26125,-1.520944 -1.79881,0 -3.05651,1.21383 -0.55573,0.55573 -0.96522,1.433197 -0.39486,0.862844 -0.39486,1.813434 z m 13.61538,4.62133 2.60315,-0.409485 q 0.21937,1.491695 1.22846,2.369163 1.02371,0.862843 2.79327,0.862843 1.81343,0 2.6909,-0.731223 0.87747,-0.745848 0.87747,-1.740311 0,-0.892092 -0.7751,-1.403948 -0.38023,-0.204743 -2.6909,-0.892093 -1.66719,-0.365611 -2.61778,-0.672725 -0.93596,-0.307114 -1.40395,-0.584978 -1.08221,-0.526481 -1.68181,-1.477071 -0.26324,-0.482607 -0.43873,-1.009088 l -0.10237,-0.526481 -0.0439,-0.555729 q 0,-1.038337 0.46799,-1.915805 0.4826,-0.877468 1.30157,-1.477071 0.59961,-0.424109 1.72569,-0.745847 1.14071,-0.336363 2.22292,-0.336363 1.78418,0 3.12963,0.497232 1.36008,0.497232 2.07668,1.433197 0.57035,0.716599 0.95059,2.427661 l -2.57391,0.350987 q -0.17549,-1.140708 -1.02371,-1.842682 -0.8336,-0.701974 -2.36916,-0.701974 -1.81344,0 -2.58853,0.599603 -0.7751,0.599603 -0.7751,1.403948 0,0.380236 0.30711,0.906717 0.30712,0.39486 1.02372,0.716598 l 2.32528,0.672726 q 2.48616,0.599603 3.89011,1.228455 1.05296,0.438733 1.71106,1.374699 0.6581,0.921341 0.6581,2.252167 0,1.316202 -0.76047,2.471534 -0.74585,1.155333 -2.22292,1.798809 -0.73122,0.307114 -1.55019,0.482608 l -0.80434,0.116995 -0.92135,0.04387 q -3.04188,0 -4.62133,-1.257704 -1.57944,-1.257704 -2.01817,-3.729238 z"
       id="text591"
       clip-path="none"
       aria-label="Audiences" />
  </g>
</svg>
